# xmcd
#
# Track frame offsets: 
#        150
#        11967
#        26305
#        57856
#        75534
#        84811
#        94768
#        105450
#        119413
#        136071
#        155805
#        168521
#        192083
#        207690
#
# Disc length: 3640 seconds
#
# Revision: 0
# Processed by: cddbd v1.5.1PL2 Copyright (c) Steve Scherf et al.
# Submitted via: ExactAudioCopy v0.95a5
#
DISCID=af0e360e
DTITLE=Todd Rundgren's Utopia - City In My Head [CD2]
DYEAR=1999
DGENRE=Progressive Rock
TTITLE0=Second Nature
TTITLE1=Set Me Free
TTITLE2=Caravan
TTITLE3=Love Alone
TTITLE4=I Just Want To Touch You
TTITLE5=Alone
TTITLE6=Life Goes On
TTITLE7=Feel Too Good
TTITLE8=Everybody Else Is Wrong
TTITLE9=Swing To The Right
TTITLE10=Farenheit 451
TTITLE11=Only Human
TTITLE12=One World
TTITLE13=Utopia Theme
EXTD=
EXTT0=
EXTT1=
EXTT2=
EXTT3=
EXTT4=
EXTT5=
EXTT6=
EXTT7=
EXTT8=
EXTT9=
EXTT10=
EXTT11=
EXTT12=
EXTT13=
PLAYORDER=
